<svg width="239" height="100" viewBox="0 0 239 100" fill="none" xmlns="http://www.w3.org/2000/svg">
<g clip-path="url(#clip0_8_108)">
<path d="M0 16.6865L239 0V82.7623L0 99.4613V16.6865Z" fill="#510C76"/>
<path d="M27.4384 50.072C31.039 47.1667 34.5153 44.0628 37.9296 40.9093C37.2964 43.5041 36.6632 46.099 36.03 48.6814C35.3968 51.4004 34.7016 54.1815 34.0684 56.9005C33.5593 58.9864 32.4916 61.5191 32.864 63.7291C33.311 66.0632 36.5887 67.7145 38.687 68.2235C41.0956 68.7947 42.4861 66.1377 43.7401 64.4989C46.5212 60.8984 49.3023 57.2233 51.8351 53.4366C51.0777 56.7888 50.4445 60.2031 49.9976 63.6794C49.6872 66.1501 49.054 69.1175 50.2459 71.4516C50.8791 72.6559 51.9468 73.5374 53.089 74.2327C54.4796 75.1142 56.3792 76.3185 58.1422 76.2564C60.5384 76.1323 61.9289 73.2891 62.6366 71.3274C65.1694 64.4989 67.4414 57.5461 69.5273 50.5934C70.4088 47.564 71.1661 44.4601 71.998 41.3562V41.4183C72.4449 42.424 74.9653 43.889 76.0454 43.7524C76.5545 43.6904 76.8649 43.5041 77.2498 43.2434C76.8028 44.4477 72.7553 57.1488 70.0363 65.5666C69.6514 66.8951 69.5273 68.2856 70.4833 69.4899C71.4268 70.6322 72.8795 71.5137 74.2079 72.1469C75.2881 72.6559 76.4179 73.2891 77.6222 73.227C79.708 73.227 82.1167 71.8986 84.0659 71.2033C86.4621 70.3218 89.6281 68.6084 92.0988 67.6648C93.3652 67.1558 94.6937 66.5847 95.96 66.026C97.0402 65.5169 98.1079 65.2066 98.7411 64.1264C98.9894 63.6794 96.5932 62.6117 96.2084 62.5496C93.1789 62.5496 90.1371 63.5677 87.2319 64.5113C84.7612 65.2686 84.8978 65.3928 82.4271 66.2867C80.0308 67.1061 81.5456 66.6716 79.1369 67.491C78.2554 67.8014 77.3615 68.1242 76.48 68.4346C76.6041 67.9876 78.5037 61.6681 80.4654 54.9637C80.8503 54.8395 81.2227 54.7154 81.6697 54.5788C83.4451 54.0698 85.2081 53.4987 86.9836 53.0641C88.9452 52.5551 91.4159 52.4309 92.9927 51.2266V51.1025C92.9927 50.9783 92.9927 50.8541 92.9306 50.7176C92.8686 50.1465 91.3539 49.5753 90.9069 49.4512C88.0637 48.6938 85.1585 49.327 82.365 50.0223C82.1787 50.0844 81.9925 50.1465 81.8559 50.1465C83.6314 44.1994 85.084 39.0842 85.1461 38.8979C86.5987 38.451 85.5185 38.7117 86.9836 38.3268C89.8267 37.6315 90.7207 37.4453 93.6259 37.0604C95.0785 36.8742 96.5312 36.6135 97.9217 36.4272C98.8032 36.3031 100.579 36.4272 100.827 35.3471C100.951 34.6518 98.7411 33.7082 98.2321 33.5717C95.004 32.6281 93.6135 32.5536 90.2613 33.0005C87.1574 33.4475 80.2047 34.838 76.0951 36.6631C75.1515 37.1101 73.5003 37.9295 72.5567 38.9352C72.6187 38.749 72.6808 38.4882 72.7429 38.302C73.2519 36.3403 73.5623 34.3166 73.9472 32.2928C74.3197 30.145 74.6425 28.0591 74.5183 25.8492C74.5183 25.6008 73.1278 24.769 73.0036 25.0297C71.1661 27.5004 70.3467 30.9147 69.279 33.82C68.1367 36.8494 67.3173 40.0153 66.2371 43.1192C64.1513 49.3146 62.1897 55.5721 59.9797 61.7054C58.974 64.4865 58.1422 67.5283 56.6896 70.0486C56.3047 70.6818 55.8701 71.3771 55.299 71.9482C55.1128 69.9245 55.4852 67.7766 55.6839 65.877C56.0067 62.711 56.5033 59.5575 57.1365 56.3915C58.5271 49.178 60.5508 42.1012 62.3262 34.9622C62.4504 34.4532 59.9921 33.1247 59.7314 33.4475C59.6072 33.6337 59.5451 33.7703 59.421 33.9565H59.2968C57.72 34.6518 56.9627 35.9803 55.9446 37.3087C54.9265 38.6372 53.983 40.0898 53.0394 41.4804C51.0777 44.3235 48.9919 47.1046 46.9682 49.9478C45.0065 52.6668 43.0448 55.4479 41.0211 58.1048C40.3879 58.9243 39.7547 59.7437 39.1215 60.5755C39.7547 57.7324 40.3879 54.8892 41.0832 51.9715C42.4116 46.1486 43.678 40.2761 44.8699 34.4532C45.0562 33.5717 40.8845 31.2251 40.3134 31.7962C34.8754 37.1722 29.4373 42.5481 24.4463 48.3586C24.198 48.5448 26.917 50.5065 27.4136 50.072" fill="#F6E948"/>
<path d="M185.439 59.3093L185.377 51.5248L189.747 59.3093L197.073 71.3152H208.147V29.8472H197.457L197.519 41.9151V49.6376L193.162 41.9151L185.824 29.8472H174.7V71.3152H185.439V59.3093Z" fill="#F6E948"/>
<path d="M171.149 61.4572H153.382V55.3239H165.214V45.9005H153.382V39.6431H166.667L172.415 29.8472H140.991V71.3152H171.149V61.4572Z" fill="#F6E948"/>
<path d="M107.047 67.1434C108.947 68.8567 111.033 70.1728 113.491 71.0667C115.887 71.9482 118.544 72.3952 121.4 72.3952C124.255 72.3952 126.962 72.0848 129.37 71.3895C131.779 70.6942 134.361 69.6762 137.08 68.1615V46.4094H126.08L121.151 54.7526H126.08V61.8295C124.503 62.3385 122.976 62.5869 121.586 62.5869C116.657 62.5869 114.186 58.6015 114.186 50.6306C114.186 46.2728 115.006 43.231 116.582 41.468C118.159 39.6925 120.183 38.811 122.529 38.811C124.876 38.811 127.334 39.3201 129.681 40.2016L134.87 31.4113C130.761 29.6359 126.465 28.8165 121.971 28.8165C119.127 28.8165 116.471 29.2634 114 30.1449C111.529 31.0264 109.319 32.2928 107.358 34.0062C105.396 35.7195 103.881 37.9916 102.739 40.8348C101.597 43.6779 101.038 46.906 101.038 50.5686C101.038 54.2312 101.547 57.4592 102.615 60.3024C103.695 63.1456 105.148 65.43 107.047 67.131" fill="#F6E948"/>
</g>
<defs>
<clipPath id="clip0_8_108">
<rect width="239" height="99.4613" fill="white"/>
</clipPath>
</defs>
</svg>
