<?xml version="1.0" encoding="UTF-8"?>
<svg id="Camada_1" data-name="Camada 1" xmlns="http://www.w3.org/2000/svg" xmlns:xlink="http://www.w3.org/1999/xlink" viewBox="0 0 849.83 275.71">
  <defs>
    <style>
      .cls-1 {
        fill: url(#Gradiente_sem_nome_2);
      }

      .cls-1, .cls-2, .cls-3, .cls-4, .cls-5, .cls-6, .cls-7, .cls-8 {
        stroke-width: 0px;
      }

      .cls-9 {
        clip-path: url(#clippath-2);
      }

      .cls-2 {
        fill: #f4e952;
      }

      .cls-3 {
        fill: #94c11f;
      }

      .cls-10 {
        clip-path: url(#clippath-1);
      }

      .cls-4 {
        clip-rule: evenodd;
        fill: none;
      }

      .cls-11 {
        clip-path: url(#clippath);
      }

      .cls-5 {
        fill: #4c266e;
      }

      .cls-6 {
        fill: url(#Gradiente_sem_nome_4);
      }

      .cls-7 {
        fill: #fff;
      }

      .cls-8 {
        fill: url(#Gradiente_sem_nome_3);
      }
    </style>
    <clipPath id="clippath">
      <path class="cls-4" d="M331.95,134.31c-2.83,22.44,6.41,41.66,21.59,54.39l34.2-54.99-28.8-4.63,102.7-83.04-46.89,74.15,35.4,9.21-118.95,81.68s34.93-13.92,34.98-13.91c31.55,12.27,77.74,3.79,100.06-33.91,50.11-84.67,5.78-163.25,5.78-163.25-32.68,78.24-131.36,65.24-140.06,134.31Z"/>
    </clipPath>
    <linearGradient id="Gradiente_sem_nome_4" data-name="Gradiente sem nome 4" x1="416.68" y1="122.91" x2="523.48" y2="-183.38" gradientUnits="userSpaceOnUse">
      <stop offset="0" stop-color="#a9ca50"/>
      <stop offset="1" stop-color="#f5ed88"/>
    </linearGradient>
    <clipPath id="clippath-1">
      <path class="cls-4" d="M331.2,211.08s34.93-13.92,34.98-13.91c28.25,10.99,68.24,5.32,92.32-23.07,2.4-3.01,4.47-5.77,6.03-8.13.58-.89,1.15-1.79,1.71-2.72,9.14-16.08,3.91-28.29-16.09-33.86l-118.95,81.68Z"/>
    </clipPath>
    <linearGradient id="Gradiente_sem_nome_2" data-name="Gradiente sem nome 2" x1="449.94" y1="134.98" x2="384.02" y2="184.79" gradientUnits="userSpaceOnUse">
      <stop offset="0" stop-color="#3e7d39"/>
      <stop offset="1" stop-color="#a9ca50"/>
    </linearGradient>
    <clipPath id="clippath-2">
      <path class="cls-4" d="M336.8,116.67c-2.52,6.17,3.07,8.89,9.81,10.42l12.34,1.99,102.7-83.04c17.96-28.41,10.37-46.04,10.37-46.04-29.57,70.78-113.11,66.92-135.21,116.67Z"/>
    </clipPath>
    <linearGradient id="Gradiente_sem_nome_3" data-name="Gradiente sem nome 3" x1="437.45" y1="41.02" x2="360.63" y2="100.25" gradientUnits="userSpaceOnUse">
      <stop offset="0" stop-color="#a9ca50"/>
      <stop offset="1" stop-color="#3e7d39"/>
    </linearGradient>
  </defs>
  <polygon class="cls-7" points="0 216.96 102.67 216.96 102.67 182.4 34.22 182.4 34.22 140.47 85.22 140.47 85.22 106.24 34.22 106.24 34.22 61.95 102.67 61.95 102.67 27.72 0 27.72 0 216.96"/>
  <path class="cls-7" d="M246.28,179.38c-9.4,5.03-19.79,7.72-31.54,7.72-18.45,0-34.22-7.38-45.97-19.13-12.07-12.07-19.46-27.85-19.46-46.31s7.38-33.89,19.46-45.97c12.08-12.08,28.18-19.46,45.97-19.46,10.4,0,20.47,2.34,29.86,7.38,9.39,5.03,17.11,11.41,23.15,19.79l27.85-20.12c-9.73-13.09-21.47-23.15-35.57-30.54-13.42-6.71-28.86-10.74-45.29-10.74-27.84,0-52.01,10.74-70.46,29.19-18.45,18.45-29.19,42.61-29.19,70.45s10.74,52.01,29.19,70.46c18.45,18.45,42.62,29.19,70.46,29.19,17.11,0,32.87-3.69,47.31-11.42,15.09-7.71,27.17-18.78,36.57-32.54l-28.18-19.13c-6.37,9.05-14.43,16.11-24.16,21.14"/>
  <polygon class="cls-7" points="619.73 28.4 619.73 132.41 548.93 59.59 519.07 28.4 519.07 70.33 519.07 215.95 553.29 215.95 553.29 112.28 624.09 185.09 653.95 216.29 653.95 174.35 653.95 28.4 619.73 28.4"/>
  <g class="cls-11">
    <rect class="cls-6" x="329.13" width="187.21" height="211.08"/>
  </g>
  <g class="cls-10">
    <rect class="cls-1" x="331.2" y="129.4" width="144.18" height="81.68"/>
  </g>
  <g class="cls-9">
    <rect class="cls-8" x="334.29" width="145.32" height="129.08"/>
  </g>
  <path class="cls-7" d="M341.34,193.41l2.41-1.67c-15.87-15.43-23.33-36.46-20.55-58.53,1.43-11.38,5.07-20.81,10.21-28.83.18-.26.35-.51.51-.77.57-.86,1.17-1.71,1.78-2.55.81-1.11,1.64-2.19,2.5-3.23.12-.16.24-.31.36-.45,6.97-8.39,15.72-15.08,25.43-21.04.61-.37,1.22-.75,1.83-1.11.42-.26.84-.51,1.26-.76,7.42-4.38,15.23-8.35,22.97-12.29,19.61-9.96,39.64-20.2,55.18-36.8-12.25-5.44-25.78-8.39-40.34-8.39-27.85,0-52,10.74-70.46,29.19-18.45,18.45-29.19,42.61-29.19,70.46s10.74,52.01,29.19,70.46c2.21,2.21,4.52,4.31,6.9,6.31"/>
  <path class="cls-7" d="M498.98,83.4c-.89,25.45-7.47,54.47-25.15,84.35-.07.11-.15.22-.21.32-.56.95-1.1,1.81-1.64,2.64-1.95,3.01-4.04,5.82-6.26,8.48-.12.15-.22.27-.33.42-.06.06-.11.13-.17.2-.28.33-.58.64-.86.97-.27.31-.54.61-.82.92-17.72,19.68-42.1,28.6-65.09,29.38-.06,0-.11,0-.16,0-1.01.03-2.01.05-3.01.05-.31,0-.62,0-.93,0-.67,0-1.33-.03-1.99-.04-3.74-.1-7.44-.41-11.06-.94-.07,0-.13-.01-.18-.02-.92-.15-1.83-.3-2.75-.46-.18-.03-.35-.06-.52-.09-.84-.15-1.67-.33-2.51-.51-.25-.06-.51-.11-.77-.17-.76-.17-1.52-.35-2.27-.54-.36-.09-.72-.19-1.07-.29-.66-.18-1.31-.35-1.97-.54-.69-.2-1.38-.43-2.06-.65-.29-.1-.6-.18-.91-.28-.71.27-1.54.61-2.45.97,12.43,5.64,26.2,8.71,41.04,8.71,27.85,0,52.01-10.74,70.46-29.19,18.45-18.45,29.19-42.62,29.19-70.46,0-11.8-1.94-22.92-5.56-33.24"/>
  <polygon class="cls-3" points="9.01 250.17 9.01 257.72 19.15 257.72 19.15 262.51 9.01 262.51 9.01 270.49 20.44 270.49 20.44 275.41 2.97 275.41 2.97 245.26 20.44 245.26 20.44 250.17 9.01 250.17"/>
  <polygon class="cls-3" points="51.67 275.41 45.63 275.41 31.96 254.74 31.96 275.41 25.92 275.41 25.92 245.26 31.96 245.26 45.63 265.97 45.63 245.26 51.67 245.26 51.67 275.41"/>
  <polygon class="cls-3" points="63.66 250.17 63.66 257.72 73.8 257.72 73.8 262.51 63.66 262.51 63.66 270.49 75.09 270.49 75.09 275.41 57.62 275.41 57.62 245.26 75.09 245.26 75.09 250.17 63.66 250.17"/>
  <path class="cls-3" d="M96.09,275.41l-6.64-11.73h-2.85v11.73h-6.03v-30.11h11.3c2.33,0,4.32.41,5.95,1.23,1.65.82,2.87,1.93,3.69,3.32.82,1.4,1.23,2.96,1.23,4.68,0,1.99-.58,3.77-1.73,5.37-1.15,1.59-2.86,2.7-5.13,3.31l7.2,12.2h-6.99ZM86.6,259.14h5.05c1.64,0,2.86-.39,3.67-1.18.8-.79,1.21-1.9,1.21-3.3s-.41-2.45-1.21-3.22c-.81-.76-2.03-1.15-3.67-1.15h-5.05v8.84Z"/>
  <path class="cls-3" d="M129.18,254.36c-.69-1.26-1.64-2.23-2.85-2.89-1.2-.66-2.61-.99-4.23-.99-1.78,0-3.36.4-4.74,1.21-1.38.81-2.45,1.96-3.23,3.45-.77,1.5-1.17,3.22-1.17,5.18s.4,3.77,1.19,5.26c.79,1.5,1.89,2.65,3.3,3.46,1.41.8,3.05,1.2,4.92,1.2,2.3,0,4.18-.6,5.65-1.83,1.47-1.22,2.43-2.92,2.89-5.11h-10.35v-4.62h16.31v5.26c-.41,2.1-1.27,4.04-2.59,5.82-1.32,1.78-3.03,3.21-5.11,4.29-2.09,1.08-4.42,1.62-7,1.62-2.9,0-5.53-.65-7.88-1.97-2.34-1.31-4.19-3.12-5.52-5.45-1.34-2.32-2-4.97-2-7.94s.66-5.61,2-7.96c1.34-2.34,3.18-4.17,5.52-5.47,2.35-1.31,4.96-1.97,7.83-1.97,3.4,0,6.34.83,8.85,2.48,2.5,1.66,4.22,3.97,5.18,6.97h-6.95Z"/>
  <rect class="cls-3" x="141.34" y="245.3" width="6.04" height="30.11"/>
  <path class="cls-3" d="M171.79,269.67h-11.99l-1.98,5.73h-6.35l10.83-30.15h7.03l10.83,30.15h-6.39l-1.98-5.73ZM170.15,264.84l-4.36-12.59-4.35,12.59h8.71Z"/>
  <polygon class="cls-3" points="200.51 270.62 210.44 270.62 210.44 275.41 194.48 275.41 194.48 245.3 200.51 245.3 200.51 270.62"/>
  <rect class="cls-3" x="214.27" y="245.3" width="6.03" height="30.11"/>
  <polygon class="cls-3" points="259.09 245.3 259.09 275.41 253.05 275.41 253.05 255.83 244.98 275.41 240.41 275.41 232.31 255.83 232.31 275.41 226.26 275.41 226.26 245.3 233.13 245.3 242.7 267.69 252.28 245.3 259.09 245.3"/>
  <path class="cls-3" d="M285.85,259.14c-.77,1.41-1.96,2.55-3.58,3.41-1.63.87-3.67,1.3-6.15,1.3h-5.05v11.56h-6.03v-30.11h11.08c2.33,0,4.31.41,5.95,1.21,1.64.81,2.87,1.92,3.69,3.32.83,1.41,1.23,3.01,1.23,4.78,0,1.61-.37,3.12-1.14,4.53M279.57,257.83c.81-.77,1.21-1.83,1.21-3.22,0-2.93-1.65-4.4-4.92-4.4h-4.79v8.76h4.79c1.67,0,2.91-.38,3.71-1.14Z"/>
  <path class="cls-3" d="M309.72,269.67h-11.98l-1.99,5.73h-6.34l10.82-30.15h7.03l10.82,30.15h-6.38l-1.99-5.73ZM308.09,264.84l-4.36-12.59-4.35,12.59h8.71Z"/>
  <polygon class="cls-3" points="338.45 250.17 338.45 257.72 348.59 257.72 348.59 262.51 338.45 262.51 338.45 270.49 349.88 270.49 349.88 275.41 332.41 275.41 332.41 245.26 349.88 245.26 349.88 250.17 338.45 250.17"/>
  <path class="cls-3" d="M370.35,274.63c-1.69-.72-3.01-1.75-4-3.1-.98-1.35-1.48-2.94-1.51-4.78h6.47c.09,1.23.53,2.22,1.32,2.93.79.72,1.87,1.08,3.25,1.08s2.52-.34,3.32-1.01c.81-.67,1.21-1.56,1.21-2.66,0-.89-.27-1.62-.82-2.2-.55-.57-1.23-1.03-2.05-1.36-.82-.32-1.95-.69-3.38-1.1-1.96-.57-3.55-1.14-4.78-1.71-1.22-.56-2.27-1.41-3.14-2.54-.88-1.14-1.32-2.65-1.32-4.54,0-1.79.45-3.34,1.34-4.66s2.14-2.34,3.75-3.04c1.61-.7,3.45-1.06,5.52-1.06,3.1,0,5.63.75,7.57,2.26,1.94,1.51,3.01,3.62,3.21,6.32h-6.64c-.06-1.04-.49-1.89-1.31-2.57-.82-.67-1.91-1.01-3.26-1.01-1.18,0-2.12.29-2.82.9-.7.6-1.05,1.48-1.05,2.63,0,.82.27,1.48.8,2.01.53.54,1.19.97,1.99,1.29.79.33,1.9.71,3.34,1.14,1.95.57,3.56,1.15,4.79,1.73,1.23.57,2.29,1.44,3.19,2.58.89,1.15,1.34,2.66,1.34,4.53,0,1.61-.42,3.1-1.25,4.49-.84,1.38-2.06,2.47-3.67,3.29-1.61.82-3.53,1.23-5.74,1.23s-3.98-.36-5.66-1.08"/>
  <path class="cls-3" d="M397.84,245.3v18.64c0,2.04.54,3.6,1.6,4.68,1.07,1.08,2.56,1.62,4.49,1.62s3.46-.53,4.53-1.62c1.06-1.07,1.6-2.63,1.6-4.68v-18.64h6.08v18.6c0,2.55-.56,4.72-1.66,6.49-1.11,1.77-2.59,3.1-4.44,3.99-1.86.88-3.93,1.33-6.2,1.33s-4.28-.45-6.1-1.33c-1.83-.89-3.27-2.22-4.33-3.99-1.06-1.77-1.6-3.94-1.6-6.49v-18.6h6.03Z"/>
  <path class="cls-3" d="M426.67,274.63c-1.68-.72-3.01-1.75-3.99-3.1-.98-1.35-1.47-2.94-1.51-4.78h6.48c.08,1.23.52,2.22,1.31,2.93.8.72,1.87,1.08,3.26,1.08s2.52-.34,3.32-1.01,1.21-1.56,1.21-2.66c0-.89-.27-1.62-.82-2.2-.55-.57-1.23-1.03-2.05-1.36-.82-.32-1.95-.69-3.38-1.1-1.96-.57-3.55-1.14-4.77-1.71-1.22-.56-2.27-1.41-3.15-2.54-.88-1.14-1.32-2.65-1.32-4.54,0-1.79.45-3.34,1.34-4.66s2.14-2.34,3.75-3.04c1.61-.7,3.46-1.06,5.51-1.06,3.12,0,5.64.75,7.58,2.26,1.94,1.51,3.01,3.62,3.21,6.32h-6.64c-.06-1.04-.51-1.89-1.32-2.57-.82-.67-1.91-1.01-3.25-1.01-1.18,0-2.12.29-2.83.9-.7.6-1.05,1.48-1.05,2.63,0,.82.27,1.48.8,2.01.53.54,1.19.97,1.98,1.29.79.33,1.9.71,3.34,1.14,1.96.57,3.56,1.15,4.79,1.73,1.24.57,2.3,1.44,3.19,2.58.89,1.15,1.34,2.66,1.34,4.53,0,1.61-.42,3.1-1.26,4.49-.83,1.38-2.06,2.47-3.67,3.29-1.61.82-3.52,1.23-5.74,1.23-2.1,0-3.98-.36-5.67-1.08"/>
  <polygon class="cls-3" points="468.71 245.3 468.71 250.17 460.68 250.17 460.68 275.41 454.64 275.41 454.64 250.17 446.61 250.17 446.61 245.3 468.71 245.3"/>
  <polygon class="cls-3" points="479.14 250.17 479.14 257.72 489.28 257.72 489.28 262.51 479.14 262.51 479.14 270.49 490.57 270.49 490.57 275.41 473.11 275.41 473.11 245.26 490.57 245.26 490.57 250.17 479.14 250.17"/>
  <polygon class="cls-3" points="521.8 275.41 515.76 275.41 502.09 254.74 502.09 275.41 496.05 275.41 496.05 245.26 502.09 245.26 515.76 265.97 515.76 245.26 521.8 245.26 521.8 275.41"/>
  <polygon class="cls-3" points="548.24 245.3 548.24 250.17 540.22 250.17 540.22 275.41 534.18 275.41 534.18 250.17 526.16 250.17 526.16 245.3 548.24 245.3"/>
  <path class="cls-3" d="M571.1,269.67h-11.99l-1.99,5.73h-6.34l10.83-30.15h7.03l10.82,30.15h-6.38l-1.98-5.73ZM569.8,239.05l-9.92,4.52v-4.31l9.92-5.13v4.92ZM569.46,264.84l-4.35-12.59-4.36,12.59h8.71Z"/>
  <polygon class="cls-3" points="610.57 245.3 599.52 275.41 592.19 275.41 581.15 245.3 587.62 245.3 595.9 269.24 604.14 245.3 610.57 245.3"/>
  <polygon class="cls-3" points="620.22 250.17 620.22 257.72 630.36 257.72 630.36 262.51 620.22 262.51 620.22 270.49 631.66 270.49 631.66 275.41 614.19 275.41 614.19 245.26 631.66 245.26 631.66 250.17 620.22 250.17"/>
  <polygon class="cls-3" points="643.17 270.62 653.09 270.62 653.09 275.41 637.13 275.41 637.13 245.3 643.17 245.3 643.17 270.62"/>
  <polygon class="cls-5" points="576.02 83.31 849.83 64.19 849.83 159 576.02 178.13 576.02 83.31"/>
  <path class="cls-2" d="M607.45,121.56c4.12-3.34,8.11-6.88,12.02-10.5-.72,2.97-1.45,5.94-2.17,8.91-.72,3.11-1.52,6.3-2.25,9.42-.58,2.39-1.81,5.28-1.38,7.82.51,2.68,4.28,4.56,6.67,5.14,2.76.65,4.34-2.39,5.8-4.27,3.18-4.12,6.38-8.33,9.27-12.68-.88,3.84-1.6,7.75-2.1,11.74-.36,2.82-1.09,6.23.29,8.91.72,1.38,1.96,2.39,3.26,3.19,1.59,1.01,3.77,2.39,5.79,2.32,2.75-.14,4.34-3.41,5.15-5.65,2.89-7.83,5.5-15.79,7.89-23.76,1.02-3.48,1.88-7.03,2.82-10.58v.07c.51,1.16,3.41,2.82,4.64,2.68.58-.08.95-.29,1.38-.58-.51,1.38-5.14,15.94-8.25,25.57-.44,1.53-.58,3.11.51,4.5,1.08,1.3,2.75,2.31,4.28,3.03,1.22.58,2.53,1.31,3.91,1.24,2.39,0,5.14-1.52,7.39-2.32,2.75-1.02,6.38-2.97,9.2-4.06,1.45-.58,2.98-1.23,4.42-1.88,1.23-.58,2.47-.95,3.18-2.18.29-.51-2.46-1.74-2.89-1.81-3.48,0-6.96,1.17-10.28,2.25-2.83.87-2.68,1.01-5.51,2.02-2.74.94-1.01.44-3.77,1.38-1.01.37-2.02.72-3.04,1.08.15-.51,2.32-7.75,4.56-15.43.44-.14.87-.29,1.38-.43,2.03-.58,4.06-1.24,6.09-1.73,2.24-.58,5.06-.72,6.88-2.1v-.15c0-.14,0-.29-.07-.43-.07-.65-1.82-1.31-2.32-1.45-3.26-.87-6.59-.15-9.79.65-.21.07-.43.14-.57.14,2.02-6.8,3.69-12.67,3.76-12.9,1.67-.5.43-.22,2.1-.65,3.25-.8,4.26-1.02,7.6-1.45,1.66-.22,3.33-.51,4.93-.72,1.01-.15,3.04,0,3.32-1.24.15-.79-2.39-1.88-2.96-2.03-3.69-1.08-5.29-1.15-9.12-.65-3.55.51-11.52,2.11-16.23,4.21-1.09.51-2.97,1.45-4.06,2.6.07-.22.15-.51.22-.72.58-2.25.95-4.56,1.38-6.88.44-2.46.79-4.85.65-7.39,0-.29-1.6-1.24-1.74-.94-2.11,2.83-3.04,6.74-4.28,10.07-1.31,3.47-2.25,7.09-3.48,10.65-2.39,7.09-4.64,14.26-7.17,21.29-1.16,3.19-2.1,6.67-3.77,9.57-.43.72-.94,1.52-1.59,2.17-.22-2.32.22-4.77.44-6.95.36-3.62.94-7.24,1.66-10.87,1.6-8.26,3.91-16.37,5.94-24.56.14-.58-2.68-2.1-2.97-1.74-.15.22-.22.36-.37.58h-.15c-1.81.8-2.67,2.32-3.84,3.84-1.16,1.52-2.24,3.18-3.33,4.78-2.26,3.26-4.64,6.45-6.95,9.71-2.25,3.1-4.5,6.29-6.81,9.34-.72.95-1.45,1.88-2.18,2.82.72-3.25,1.45-6.52,2.25-9.85,1.52-6.67,2.96-13.4,4.35-20.06.21-1.02-4.56-3.7-5.22-3.05-6.23,6.16-12.45,12.31-18.18,18.98-.29.23,2.82,2.47,3.41,1.96"/>
  <polygon class="cls-2" points="788.47 132.13 788.4 123.22 793.4 132.13 801.8 145.9 814.48 145.9 814.48 98.37 802.24 98.37 802.31 112.21 802.31 121.04 797.31 112.21 788.91 98.37 776.16 98.37 776.16 145.9 788.47 145.9 788.47 132.13"/>
  <polygon class="cls-2" points="772.1 134.59 751.74 134.59 751.74 127.57 765.29 127.57 765.29 116.77 751.74 116.77 751.74 109.61 766.96 109.61 773.55 98.37 737.55 98.37 737.55 145.9 772.1 145.9 772.1 134.59"/>
  <path class="cls-2" d="M698.65,141.11c2.17,1.95,4.56,3.48,7.39,4.5,2.75,1.01,5.8,1.52,9.05,1.52s6.38-.36,9.13-1.16c2.75-.8,5.72-1.96,8.84-3.69v-24.92h-12.61l-5.65,9.57h5.65v8.11c-1.81.58-3.54.86-5.14.86-5.65,0-8.47-4.57-8.47-13.68,0-5,.94-8.48,2.76-10.51,1.8-2.02,4.12-3.04,6.8-3.04s5.51.58,8.19,1.59l5.94-10.07c-4.71-2.03-9.63-2.97-14.77-2.97-3.26,0-6.31.51-9.13,1.52-2.82,1.01-5.36,2.46-7.61,4.41-2.25,1.95-3.98,4.57-5.28,7.83-1.31,3.26-1.96,6.95-1.96,11.16s.57,7.9,1.81,11.15,2.9,5.87,5.07,7.83"/>
</svg>